<?xml version="1.0" encoding="UTF-8"?>
<svg xmlns="http://www.w3.org/2000/svg" viewBox="0 0 941 120">
  <defs>
    <linearGradient id="g" x1="12" y1="0" x2="929" y2="0" gradientUnits="userSpaceOnUse" color-interpolation="linearRGB">
      <stop offset="0%" stop-color="#fcdecf"/>
      <stop offset="6%" stop-color="#fcdcce"/>
      <stop offset="20%" stop-color="#fddace"/>
      <stop offset="39%" stop-color="#fdd7ce"/>
      <stop offset="61%" stop-color="#fdd5ce"/>
      <stop offset="80%" stop-color="#fdd3ce"/>
      <stop offset="94%" stop-color="#fcd1cf"/>
      <stop offset="100%" stop-color="#fccfd0"/>
    </linearGradient>
    <linearGradient id="gs" x1="12" y1="0" x2="929" y2="0" gradientUnits="userSpaceOnUse" color-interpolation="linearRGB">
      <stop offset="0%" stop-color="#83736c"/>
      <stop offset="6%" stop-color="#83726c"/>
      <stop offset="20%" stop-color="#83716b"/>
      <stop offset="39%" stop-color="#83706b"/>
      <stop offset="61%" stop-color="#836f6b"/>
      <stop offset="80%" stop-color="#836e6b"/>
      <stop offset="94%" stop-color="#836d6c"/>
      <stop offset="100%" stop-color="#836c6c"/>
    </linearGradient>
  </defs>
  <g fill="url(#g)">
    <rect x="19" y="12" width="7" height="12"/>
    <rect x="26" y="12" width="7" height="12"/>
    <rect x="33" y="12" width="7" height="12"/>
    <rect x="40" y="12" width="7" height="12"/>
    <rect x="47" y="12" width="7" height="12"/>
    <rect x="54" y="12" width="7" height="12"/>
    <rect x="61" y="12" width="7" height="12"/>
    <rect x="68" y="12" width="7" height="12"/>
    <rect x="75" y="12" width="7" height="12"/>
    <rect x="82" y="12" width="7" height="12"/>
    <rect x="89" y="12" width="7" height="12"/>
    <rect x="264" y="12" width="7" height="12"/>
    <rect x="271" y="12" width="7" height="12"/>
    <rect x="278" y="12" width="7" height="12"/>
    <rect x="285" y="12" width="7" height="12"/>
    <rect x="292" y="12" width="7" height="12"/>
    <rect x="334" y="12" width="7" height="12"/>
    <rect x="341" y="12" width="7" height="12"/>
    <rect x="348" y="12" width="7" height="12"/>
    <rect x="355" y="12" width="7" height="12"/>
    <rect x="362" y="12" width="7" height="12"/>
    <rect x="418" y="12" width="7" height="12"/>
    <rect x="425" y="12" width="7" height="12"/>
    <rect x="432" y="12" width="7" height="12"/>
    <rect x="467" y="12" width="7" height="12"/>
    <rect x="474" y="12" width="7" height="12"/>
    <rect x="481" y="12" width="7" height="12"/>
    <rect x="488" y="12" width="7" height="12"/>
    <rect x="495" y="12" width="7" height="12"/>
    <rect x="565" y="12" width="7" height="12"/>
    <rect x="572" y="12" width="7" height="12"/>
    <rect x="579" y="12" width="7" height="12"/>
    <rect x="586" y="12" width="7" height="12"/>
    <rect x="593" y="12" width="7" height="12"/>
    <rect x="600" y="12" width="7" height="12"/>
    <rect x="607" y="12" width="7" height="12"/>
    <rect x="614" y="12" width="7" height="12"/>
    <rect x="621" y="12" width="7" height="12"/>
    <rect x="649" y="12" width="7" height="12"/>
    <rect x="656" y="12" width="7" height="12"/>
    <rect x="663" y="12" width="7" height="12"/>
    <rect x="670" y="12" width="7" height="12"/>
    <rect x="677" y="12" width="7" height="12"/>
    <rect x="740" y="12" width="7" height="12"/>
    <rect x="747" y="12" width="7" height="12"/>
    <rect x="754" y="12" width="7" height="12"/>
    <rect x="782" y="12" width="7" height="12"/>
    <rect x="789" y="12" width="7" height="12"/>
    <rect x="796" y="12" width="7" height="12"/>
    <rect x="803" y="12" width="7" height="12"/>
    <rect x="831" y="12" width="7" height="12"/>
    <rect x="838" y="12" width="7" height="12"/>
    <rect x="845" y="12" width="7" height="12"/>
    <rect x="852" y="12" width="7" height="12"/>
    <rect x="12" y="24" width="7" height="12"/>
    <rect x="19" y="24" width="7" height="12"/>
    <rect x="26" y="24" width="7" height="12"/>
    <rect x="33" y="24" width="7" height="12"/>
    <rect x="40" y="24" width="7" height="12"/>
    <rect x="47" y="24" width="7" height="12"/>
    <rect x="54" y="24" width="7" height="12"/>
    <rect x="61" y="24" width="7" height="12"/>
    <rect x="68" y="24" width="7" height="12"/>
    <rect x="75" y="24" width="7" height="12"/>
    <rect x="82" y="24" width="7" height="12"/>
    <rect x="89" y="24" width="7" height="12"/>
    <rect x="257" y="24" width="7" height="12"/>
    <rect x="264" y="24" width="7" height="12"/>
    <rect x="271" y="24" width="7" height="12"/>
    <rect x="278" y="24" width="7" height="12"/>
    <rect x="285" y="24" width="7" height="12"/>
    <rect x="327" y="24" width="7" height="12"/>
    <rect x="334" y="24" width="7" height="12"/>
    <rect x="341" y="24" width="7" height="12"/>
    <rect x="348" y="24" width="7" height="12"/>
    <rect x="355" y="24" width="7" height="12"/>
    <rect x="411" y="24" width="7" height="12"/>
    <rect x="418" y="24" width="7" height="12"/>
    <rect x="425" y="24" width="7" height="12"/>
    <rect x="460" y="24" width="7" height="12"/>
    <rect x="467" y="24" width="7" height="12"/>
    <rect x="474" y="24" width="7" height="12"/>
    <rect x="481" y="24" width="7" height="12"/>
    <rect x="488" y="24" width="7" height="12"/>
    <rect x="558" y="24" width="7" height="12"/>
    <rect x="565" y="24" width="7" height="12"/>
    <rect x="572" y="24" width="7" height="12"/>
    <rect x="579" y="24" width="7" height="12"/>
    <rect x="586" y="24" width="7" height="12"/>
    <rect x="593" y="24" width="7" height="12"/>
    <rect x="600" y="24" width="7" height="12"/>
    <rect x="607" y="24" width="7" height="12"/>
    <rect x="614" y="24" width="7" height="12"/>
    <rect x="621" y="24" width="7" height="12"/>
    <rect x="628" y="24" width="7" height="12"/>
    <rect x="642" y="24" width="7" height="12"/>
    <rect x="649" y="24" width="7" height="12"/>
    <rect x="656" y="24" width="7" height="12"/>
    <rect x="663" y="24" width="7" height="12"/>
    <rect x="670" y="24" width="7" height="12"/>
    <rect x="733" y="24" width="7" height="12"/>
    <rect x="740" y="24" width="7" height="12"/>
    <rect x="747" y="24" width="7" height="12"/>
    <rect x="775" y="24" width="7" height="12"/>
    <rect x="782" y="24" width="7" height="12"/>
    <rect x="789" y="24" width="7" height="12"/>
    <rect x="796" y="24" width="7" height="12"/>
    <rect x="803" y="24" width="7" height="12"/>
    <rect x="824" y="24" width="7" height="12"/>
    <rect x="831" y="24" width="7" height="12"/>
    <rect x="838" y="24" width="7" height="12"/>
    <rect x="845" y="24" width="7" height="12"/>
    <rect x="852" y="24" width="7" height="12"/>
    <rect x="19" y="36" width="7" height="12"/>
    <rect x="26" y="36" width="7" height="12"/>
    <rect x="33" y="36" width="7" height="12"/>
    <rect x="40" y="36" width="7" height="12"/>
    <rect x="68" y="36" width="7" height="12"/>
    <rect x="82" y="36" width="7" height="12"/>
    <rect x="117" y="36" width="7" height="12"/>
    <rect x="124" y="36" width="7" height="12"/>
    <rect x="131" y="36" width="7" height="12"/>
    <rect x="138" y="36" width="7" height="12"/>
    <rect x="145" y="36" width="7" height="12"/>
    <rect x="152" y="36" width="7" height="12"/>
    <rect x="187" y="36" width="7" height="12"/>
    <rect x="194" y="36" width="7" height="12"/>
    <rect x="201" y="36" width="7" height="12"/>
    <rect x="208" y="36" width="7" height="12"/>
    <rect x="215" y="36" width="7" height="12"/>
    <rect x="222" y="36" width="7" height="12"/>
    <rect x="257" y="36" width="7" height="12"/>
    <rect x="264" y="36" width="7" height="12"/>
    <rect x="271" y="36" width="7" height="12"/>
    <rect x="278" y="36" width="7" height="12"/>
    <rect x="285" y="36" width="7" height="12"/>
    <rect x="292" y="36" width="7" height="12"/>
    <rect x="299" y="36" width="7" height="12"/>
    <rect x="334" y="36" width="7" height="12"/>
    <rect x="341" y="36" width="7" height="12"/>
    <rect x="348" y="36" width="7" height="12"/>
    <rect x="355" y="36" width="7" height="12"/>
    <rect x="362" y="36" width="7" height="12"/>
    <rect x="369" y="36" width="7" height="12"/>
    <rect x="376" y="36" width="7" height="12"/>
    <rect x="383" y="36" width="7" height="12"/>
    <rect x="411" y="36" width="7" height="12"/>
    <rect x="418" y="36" width="7" height="12"/>
    <rect x="425" y="36" width="7" height="12"/>
    <rect x="432" y="36" width="7" height="12"/>
    <rect x="460" y="36" width="7" height="12"/>
    <rect x="467" y="36" width="7" height="12"/>
    <rect x="474" y="36" width="7" height="12"/>
    <rect x="481" y="36" width="7" height="12"/>
    <rect x="488" y="36" width="7" height="12"/>
    <rect x="495" y="36" width="7" height="12"/>
    <rect x="502" y="36" width="7" height="12"/>
    <rect x="551" y="36" width="7" height="12"/>
    <rect x="558" y="36" width="7" height="12"/>
    <rect x="565" y="36" width="7" height="12"/>
    <rect x="572" y="36" width="7" height="12"/>
    <rect x="607" y="36" width="7" height="12"/>
    <rect x="614" y="36" width="7" height="12"/>
    <rect x="621" y="36" width="7" height="12"/>
    <rect x="649" y="36" width="7" height="12"/>
    <rect x="656" y="36" width="7" height="12"/>
    <rect x="663" y="36" width="7" height="12"/>
    <rect x="670" y="36" width="7" height="12"/>
    <rect x="684" y="36" width="7" height="12"/>
    <rect x="691" y="36" width="7" height="12"/>
    <rect x="698" y="36" width="7" height="12"/>
    <rect x="705" y="36" width="7" height="12"/>
    <rect x="712" y="36" width="7" height="12"/>
    <rect x="733" y="36" width="7" height="12"/>
    <rect x="740" y="36" width="7" height="12"/>
    <rect x="747" y="36" width="7" height="12"/>
    <rect x="754" y="36" width="7" height="12"/>
    <rect x="782" y="36" width="7" height="12"/>
    <rect x="789" y="36" width="7" height="12"/>
    <rect x="796" y="36" width="7" height="12"/>
    <rect x="803" y="36" width="7" height="12"/>
    <rect x="831" y="36" width="7" height="12"/>
    <rect x="838" y="36" width="7" height="12"/>
    <rect x="845" y="36" width="7" height="12"/>
    <rect x="852" y="36" width="7" height="12"/>
    <rect x="887" y="36" width="7" height="12"/>
    <rect x="894" y="36" width="7" height="12"/>
    <rect x="901" y="36" width="7" height="12"/>
    <rect x="908" y="36" width="7" height="12"/>
    <rect x="915" y="36" width="7" height="12"/>
    <rect x="19" y="48" width="7" height="12"/>
    <rect x="26" y="48" width="7" height="12"/>
    <rect x="33" y="48" width="7" height="12"/>
    <rect x="40" y="48" width="7" height="12"/>
    <rect x="47" y="48" width="7" height="12"/>
    <rect x="54" y="48" width="7" height="12"/>
    <rect x="61" y="48" width="7" height="12"/>
    <rect x="68" y="48" width="7" height="12"/>
    <rect x="110" y="48" width="7" height="12"/>
    <rect x="117" y="48" width="7" height="12"/>
    <rect x="124" y="48" width="7" height="12"/>
    <rect x="131" y="48" width="7" height="12"/>
    <rect x="138" y="48" width="7" height="12"/>
    <rect x="145" y="48" width="7" height="12"/>
    <rect x="152" y="48" width="7" height="12"/>
    <rect x="159" y="48" width="7" height="12"/>
    <rect x="180" y="48" width="7" height="12"/>
    <rect x="187" y="48" width="7" height="12"/>
    <rect x="194" y="48" width="7" height="12"/>
    <rect x="201" y="48" width="7" height="12"/>
    <rect x="208" y="48" width="7" height="12"/>
    <rect x="215" y="48" width="7" height="12"/>
    <rect x="222" y="48" width="7" height="12"/>
    <rect x="229" y="48" width="7" height="12"/>
    <rect x="250" y="48" width="7" height="12"/>
    <rect x="257" y="48" width="7" height="12"/>
    <rect x="264" y="48" width="7" height="12"/>
    <rect x="271" y="48" width="7" height="12"/>
    <rect x="278" y="48" width="7" height="12"/>
    <rect x="285" y="48" width="7" height="12"/>
    <rect x="292" y="48" width="7" height="12"/>
    <rect x="334" y="48" width="7" height="12"/>
    <rect x="341" y="48" width="7" height="12"/>
    <rect x="348" y="48" width="7" height="12"/>
    <rect x="355" y="48" width="7" height="12"/>
    <rect x="362" y="48" width="7" height="12"/>
    <rect x="369" y="48" width="7" height="12"/>
    <rect x="376" y="48" width="7" height="12"/>
    <rect x="383" y="48" width="7" height="12"/>
    <rect x="390" y="48" width="7" height="12"/>
    <rect x="404" y="48" width="7" height="12"/>
    <rect x="411" y="48" width="7" height="12"/>
    <rect x="418" y="48" width="7" height="12"/>
    <rect x="425" y="48" width="7" height="12"/>
    <rect x="432" y="48" width="7" height="12"/>
    <rect x="453" y="48" width="7" height="12"/>
    <rect x="460" y="48" width="7" height="12"/>
    <rect x="467" y="48" width="7" height="12"/>
    <rect x="474" y="48" width="7" height="12"/>
    <rect x="481" y="48" width="7" height="12"/>
    <rect x="488" y="48" width="7" height="12"/>
    <rect x="495" y="48" width="7" height="12"/>
    <rect x="551" y="48" width="7" height="12"/>
    <rect x="558" y="48" width="7" height="12"/>
    <rect x="565" y="48" width="7" height="12"/>
    <rect x="572" y="48" width="7" height="12"/>
    <rect x="579" y="48" width="7" height="12"/>
    <rect x="586" y="48" width="7" height="12"/>
    <rect x="593" y="48" width="7" height="12"/>
    <rect x="600" y="48" width="7" height="12"/>
    <rect x="607" y="48" width="7" height="12"/>
    <rect x="614" y="48" width="7" height="12"/>
    <rect x="621" y="48" width="7" height="12"/>
    <rect x="649" y="48" width="7" height="12"/>
    <rect x="656" y="48" width="7" height="12"/>
    <rect x="663" y="48" width="7" height="12"/>
    <rect x="670" y="48" width="7" height="12"/>
    <rect x="677" y="48" width="7" height="12"/>
    <rect x="684" y="48" width="7" height="12"/>
    <rect x="691" y="48" width="7" height="12"/>
    <rect x="698" y="48" width="7" height="12"/>
    <rect x="705" y="48" width="7" height="12"/>
    <rect x="726" y="48" width="7" height="12"/>
    <rect x="733" y="48" width="7" height="12"/>
    <rect x="740" y="48" width="7" height="12"/>
    <rect x="747" y="48" width="7" height="12"/>
    <rect x="754" y="48" width="7" height="12"/>
    <rect x="782" y="48" width="7" height="12"/>
    <rect x="789" y="48" width="7" height="12"/>
    <rect x="796" y="48" width="7" height="12"/>
    <rect x="803" y="48" width="7" height="12"/>
    <rect x="831" y="48" width="7" height="12"/>
    <rect x="838" y="48" width="7" height="12"/>
    <rect x="845" y="48" width="7" height="12"/>
    <rect x="852" y="48" width="7" height="12"/>
    <rect x="880" y="48" width="7" height="12"/>
    <rect x="887" y="48" width="7" height="12"/>
    <rect x="894" y="48" width="7" height="12"/>
    <rect x="901" y="48" width="7" height="12"/>
    <rect x="908" y="48" width="7" height="12"/>
    <rect x="19" y="60" width="7" height="12"/>
    <rect x="26" y="60" width="7" height="12"/>
    <rect x="33" y="60" width="7" height="12"/>
    <rect x="40" y="60" width="7" height="12"/>
    <rect x="47" y="60" width="7" height="12"/>
    <rect x="54" y="60" width="7" height="12"/>
    <rect x="61" y="60" width="7" height="12"/>
    <rect x="68" y="60" width="7" height="12"/>
    <rect x="103" y="60" width="7" height="12"/>
    <rect x="110" y="60" width="7" height="12"/>
    <rect x="117" y="60" width="7" height="12"/>
    <rect x="124" y="60" width="7" height="12"/>
    <rect x="131" y="60" width="7" height="12"/>
    <rect x="138" y="60" width="7" height="12"/>
    <rect x="145" y="60" width="7" height="12"/>
    <rect x="152" y="60" width="7" height="12"/>
    <rect x="187" y="60" width="7" height="12"/>
    <rect x="194" y="60" width="7" height="12"/>
    <rect x="201" y="60" width="7" height="12"/>
    <rect x="208" y="60" width="7" height="12"/>
    <rect x="215" y="60" width="7" height="12"/>
    <rect x="222" y="60" width="7" height="12"/>
    <rect x="229" y="60" width="7" height="12"/>
    <rect x="264" y="60" width="7" height="12"/>
    <rect x="271" y="60" width="7" height="12"/>
    <rect x="278" y="60" width="7" height="12"/>
    <rect x="285" y="60" width="7" height="12"/>
    <rect x="334" y="60" width="7" height="12"/>
    <rect x="341" y="60" width="7" height="12"/>
    <rect x="348" y="60" width="7" height="12"/>
    <rect x="355" y="60" width="7" height="12"/>
    <rect x="369" y="60" width="7" height="12"/>
    <rect x="376" y="60" width="7" height="12"/>
    <rect x="383" y="60" width="7" height="12"/>
    <rect x="390" y="60" width="7" height="12"/>
    <rect x="411" y="60" width="7" height="12"/>
    <rect x="418" y="60" width="7" height="12"/>
    <rect x="425" y="60" width="7" height="12"/>
    <rect x="432" y="60" width="7" height="12"/>
    <rect x="467" y="60" width="7" height="12"/>
    <rect x="474" y="60" width="7" height="12"/>
    <rect x="481" y="60" width="7" height="12"/>
    <rect x="488" y="60" width="7" height="12"/>
    <rect x="558" y="60" width="7" height="12"/>
    <rect x="565" y="60" width="7" height="12"/>
    <rect x="572" y="60" width="7" height="12"/>
    <rect x="579" y="60" width="7" height="12"/>
    <rect x="586" y="60" width="7" height="12"/>
    <rect x="593" y="60" width="7" height="12"/>
    <rect x="600" y="60" width="7" height="12"/>
    <rect x="607" y="60" width="7" height="12"/>
    <rect x="614" y="60" width="7" height="12"/>
    <rect x="621" y="60" width="7" height="12"/>
    <rect x="628" y="60" width="7" height="12"/>
    <rect x="649" y="60" width="7" height="12"/>
    <rect x="656" y="60" width="7" height="12"/>
    <rect x="663" y="60" width="7" height="12"/>
    <rect x="670" y="60" width="7" height="12"/>
    <rect x="677" y="60" width="7" height="12"/>
    <rect x="684" y="60" width="7" height="12"/>
    <rect x="691" y="60" width="7" height="12"/>
    <rect x="698" y="60" width="7" height="12"/>
    <rect x="733" y="60" width="7" height="12"/>
    <rect x="740" y="60" width="7" height="12"/>
    <rect x="747" y="60" width="7" height="12"/>
    <rect x="754" y="60" width="7" height="12"/>
    <rect x="782" y="60" width="7" height="12"/>
    <rect x="789" y="60" width="7" height="12"/>
    <rect x="796" y="60" width="7" height="12"/>
    <rect x="803" y="60" width="7" height="12"/>
    <rect x="831" y="60" width="7" height="12"/>
    <rect x="838" y="60" width="7" height="12"/>
    <rect x="845" y="60" width="7" height="12"/>
    <rect x="852" y="60" width="7" height="12"/>
    <rect x="873" y="60" width="7" height="12"/>
    <rect x="880" y="60" width="7" height="12"/>
    <rect x="887" y="60" width="7" height="12"/>
    <rect x="894" y="60" width="7" height="12"/>
    <rect x="901" y="60" width="7" height="12"/>
    <rect x="908" y="60" width="7" height="12"/>
    <rect x="915" y="60" width="7" height="12"/>
    <rect x="19" y="72" width="7" height="12"/>
    <rect x="26" y="72" width="7" height="12"/>
    <rect x="33" y="72" width="7" height="12"/>
    <rect x="40" y="72" width="7" height="12"/>
    <rect x="61" y="72" width="7" height="12"/>
    <rect x="103" y="72" width="7" height="12"/>
    <rect x="110" y="72" width="7" height="12"/>
    <rect x="117" y="72" width="7" height="12"/>
    <rect x="124" y="72" width="7" height="12"/>
    <rect x="131" y="72" width="7" height="12"/>
    <rect x="138" y="72" width="7" height="12"/>
    <rect x="145" y="72" width="7" height="12"/>
    <rect x="180" y="72" width="7" height="12"/>
    <rect x="187" y="72" width="7" height="12"/>
    <rect x="194" y="72" width="7" height="12"/>
    <rect x="201" y="72" width="7" height="12"/>
    <rect x="208" y="72" width="7" height="12"/>
    <rect x="215" y="72" width="7" height="12"/>
    <rect x="222" y="72" width="7" height="12"/>
    <rect x="229" y="72" width="7" height="12"/>
    <rect x="264" y="72" width="7" height="12"/>
    <rect x="271" y="72" width="7" height="12"/>
    <rect x="278" y="72" width="7" height="12"/>
    <rect x="285" y="72" width="7" height="12"/>
    <rect x="299" y="72" width="7" height="12"/>
    <rect x="306" y="72" width="7" height="12"/>
    <rect x="313" y="72" width="7" height="12"/>
    <rect x="334" y="72" width="7" height="12"/>
    <rect x="341" y="72" width="7" height="12"/>
    <rect x="348" y="72" width="7" height="12"/>
    <rect x="355" y="72" width="7" height="12"/>
    <rect x="369" y="72" width="7" height="12"/>
    <rect x="376" y="72" width="7" height="12"/>
    <rect x="383" y="72" width="7" height="12"/>
    <rect x="390" y="72" width="7" height="12"/>
    <rect x="411" y="72" width="7" height="12"/>
    <rect x="418" y="72" width="7" height="12"/>
    <rect x="425" y="72" width="7" height="12"/>
    <rect x="432" y="72" width="7" height="12"/>
    <rect x="467" y="72" width="7" height="12"/>
    <rect x="474" y="72" width="7" height="12"/>
    <rect x="481" y="72" width="7" height="12"/>
    <rect x="488" y="72" width="7" height="12"/>
    <rect x="502" y="72" width="7" height="12"/>
    <rect x="509" y="72" width="7" height="12"/>
    <rect x="516" y="72" width="7" height="12"/>
    <rect x="558" y="72" width="7" height="12"/>
    <rect x="565" y="72" width="7" height="12"/>
    <rect x="572" y="72" width="7" height="12"/>
    <rect x="607" y="72" width="7" height="12"/>
    <rect x="614" y="72" width="7" height="12"/>
    <rect x="621" y="72" width="7" height="12"/>
    <rect x="628" y="72" width="7" height="12"/>
    <rect x="649" y="72" width="7" height="12"/>
    <rect x="656" y="72" width="7" height="12"/>
    <rect x="663" y="72" width="7" height="12"/>
    <rect x="670" y="72" width="7" height="12"/>
    <rect x="677" y="72" width="7" height="12"/>
    <rect x="684" y="72" width="7" height="12"/>
    <rect x="691" y="72" width="7" height="12"/>
    <rect x="698" y="72" width="7" height="12"/>
    <rect x="705" y="72" width="7" height="12"/>
    <rect x="733" y="72" width="7" height="12"/>
    <rect x="740" y="72" width="7" height="12"/>
    <rect x="747" y="72" width="7" height="12"/>
    <rect x="754" y="72" width="7" height="12"/>
    <rect x="782" y="72" width="7" height="12"/>
    <rect x="789" y="72" width="7" height="12"/>
    <rect x="796" y="72" width="7" height="12"/>
    <rect x="803" y="72" width="7" height="12"/>
    <rect x="831" y="72" width="7" height="12"/>
    <rect x="838" y="72" width="7" height="12"/>
    <rect x="845" y="72" width="7" height="12"/>
    <rect x="852" y="72" width="7" height="12"/>
    <rect x="880" y="72" width="7" height="12"/>
    <rect x="887" y="72" width="7" height="12"/>
    <rect x="894" y="72" width="7" height="12"/>
    <rect x="901" y="72" width="7" height="12"/>
    <rect x="908" y="72" width="7" height="12"/>
    <rect x="915" y="72" width="7" height="12"/>
    <rect x="922" y="72" width="7" height="12"/>
    <rect x="19" y="84" width="7" height="12"/>
    <rect x="26" y="84" width="7" height="12"/>
    <rect x="33" y="84" width="7" height="12"/>
    <rect x="40" y="84" width="7" height="12"/>
    <rect x="47" y="84" width="7" height="12"/>
    <rect x="103" y="84" width="7" height="12"/>
    <rect x="110" y="84" width="7" height="12"/>
    <rect x="117" y="84" width="7" height="12"/>
    <rect x="124" y="84" width="7" height="12"/>
    <rect x="131" y="84" width="7" height="12"/>
    <rect x="138" y="84" width="7" height="12"/>
    <rect x="145" y="84" width="7" height="12"/>
    <rect x="152" y="84" width="7" height="12"/>
    <rect x="173" y="84" width="7" height="12"/>
    <rect x="180" y="84" width="7" height="12"/>
    <rect x="187" y="84" width="7" height="12"/>
    <rect x="194" y="84" width="7" height="12"/>
    <rect x="201" y="84" width="7" height="12"/>
    <rect x="208" y="84" width="7" height="12"/>
    <rect x="215" y="84" width="7" height="12"/>
    <rect x="222" y="84" width="7" height="12"/>
    <rect x="229" y="84" width="7" height="12"/>
    <rect x="236" y="84" width="7" height="12"/>
    <rect x="264" y="84" width="7" height="12"/>
    <rect x="271" y="84" width="7" height="12"/>
    <rect x="278" y="84" width="7" height="12"/>
    <rect x="285" y="84" width="7" height="12"/>
    <rect x="292" y="84" width="7" height="12"/>
    <rect x="299" y="84" width="7" height="12"/>
    <rect x="306" y="84" width="7" height="12"/>
    <rect x="334" y="84" width="7" height="12"/>
    <rect x="341" y="84" width="7" height="12"/>
    <rect x="348" y="84" width="7" height="12"/>
    <rect x="355" y="84" width="7" height="12"/>
    <rect x="362" y="84" width="7" height="12"/>
    <rect x="369" y="84" width="7" height="12"/>
    <rect x="376" y="84" width="7" height="12"/>
    <rect x="383" y="84" width="7" height="12"/>
    <rect x="411" y="84" width="7" height="12"/>
    <rect x="418" y="84" width="7" height="12"/>
    <rect x="425" y="84" width="7" height="12"/>
    <rect x="432" y="84" width="7" height="12"/>
    <rect x="439" y="84" width="7" height="12"/>
    <rect x="467" y="84" width="7" height="12"/>
    <rect x="474" y="84" width="7" height="12"/>
    <rect x="481" y="84" width="7" height="12"/>
    <rect x="488" y="84" width="7" height="12"/>
    <rect x="495" y="84" width="7" height="12"/>
    <rect x="502" y="84" width="7" height="12"/>
    <rect x="509" y="84" width="7" height="12"/>
    <rect x="551" y="84" width="7" height="12"/>
    <rect x="558" y="84" width="7" height="12"/>
    <rect x="565" y="84" width="7" height="12"/>
    <rect x="572" y="84" width="7" height="12"/>
    <rect x="579" y="84" width="7" height="12"/>
    <rect x="586" y="84" width="7" height="12"/>
    <rect x="593" y="84" width="7" height="12"/>
    <rect x="600" y="84" width="7" height="12"/>
    <rect x="607" y="84" width="7" height="12"/>
    <rect x="614" y="84" width="7" height="12"/>
    <rect x="621" y="84" width="7" height="12"/>
    <rect x="649" y="84" width="7" height="12"/>
    <rect x="656" y="84" width="7" height="12"/>
    <rect x="663" y="84" width="7" height="12"/>
    <rect x="670" y="84" width="7" height="12"/>
    <rect x="684" y="84" width="7" height="12"/>
    <rect x="691" y="84" width="7" height="12"/>
    <rect x="698" y="84" width="7" height="12"/>
    <rect x="705" y="84" width="7" height="12"/>
    <rect x="712" y="84" width="7" height="12"/>
    <rect x="733" y="84" width="7" height="12"/>
    <rect x="740" y="84" width="7" height="12"/>
    <rect x="747" y="84" width="7" height="12"/>
    <rect x="754" y="84" width="7" height="12"/>
    <rect x="761" y="84" width="7" height="12"/>
    <rect x="782" y="84" width="7" height="12"/>
    <rect x="789" y="84" width="7" height="12"/>
    <rect x="796" y="84" width="7" height="12"/>
    <rect x="803" y="84" width="7" height="12"/>
    <rect x="810" y="84" width="7" height="12"/>
    <rect x="831" y="84" width="7" height="12"/>
    <rect x="838" y="84" width="7" height="12"/>
    <rect x="845" y="84" width="7" height="12"/>
    <rect x="852" y="84" width="7" height="12"/>
    <rect x="859" y="84" width="7" height="12"/>
    <rect x="880" y="84" width="7" height="12"/>
    <rect x="887" y="84" width="7" height="12"/>
    <rect x="894" y="84" width="7" height="12"/>
    <rect x="901" y="84" width="7" height="12"/>
    <rect x="908" y="84" width="7" height="12"/>
    <rect x="915" y="84" width="7" height="12"/>
    <rect x="12" y="96" width="7" height="12"/>
    <rect x="19" y="96" width="7" height="12"/>
    <rect x="26" y="96" width="7" height="12"/>
    <rect x="33" y="96" width="7" height="12"/>
    <rect x="40" y="96" width="7" height="12"/>
    <rect x="110" y="96" width="7" height="12"/>
    <rect x="117" y="96" width="7" height="12"/>
    <rect x="124" y="96" width="7" height="12"/>
    <rect x="131" y="96" width="7" height="12"/>
    <rect x="138" y="96" width="7" height="12"/>
    <rect x="145" y="96" width="7" height="12"/>
    <rect x="180" y="96" width="7" height="12"/>
    <rect x="187" y="96" width="7" height="12"/>
    <rect x="194" y="96" width="7" height="12"/>
    <rect x="201" y="96" width="7" height="12"/>
    <rect x="208" y="96" width="7" height="12"/>
    <rect x="215" y="96" width="7" height="12"/>
    <rect x="222" y="96" width="7" height="12"/>
    <rect x="229" y="96" width="7" height="12"/>
    <rect x="271" y="96" width="7" height="12"/>
    <rect x="278" y="96" width="7" height="12"/>
    <rect x="285" y="96" width="7" height="12"/>
    <rect x="292" y="96" width="7" height="12"/>
    <rect x="299" y="96" width="7" height="12"/>
    <rect x="327" y="96" width="7" height="12"/>
    <rect x="334" y="96" width="7" height="12"/>
    <rect x="341" y="96" width="7" height="12"/>
    <rect x="348" y="96" width="7" height="12"/>
    <rect x="355" y="96" width="7" height="12"/>
    <rect x="362" y="96" width="7" height="12"/>
    <rect x="369" y="96" width="7" height="12"/>
    <rect x="376" y="96" width="7" height="12"/>
    <rect x="404" y="96" width="7" height="12"/>
    <rect x="411" y="96" width="7" height="12"/>
    <rect x="418" y="96" width="7" height="12"/>
    <rect x="425" y="96" width="7" height="12"/>
    <rect x="432" y="96" width="7" height="12"/>
    <rect x="474" y="96" width="7" height="12"/>
    <rect x="481" y="96" width="7" height="12"/>
    <rect x="488" y="96" width="7" height="12"/>
    <rect x="495" y="96" width="7" height="12"/>
    <rect x="502" y="96" width="7" height="12"/>
    <rect x="558" y="96" width="7" height="12"/>
    <rect x="565" y="96" width="7" height="12"/>
    <rect x="572" y="96" width="7" height="12"/>
    <rect x="579" y="96" width="7" height="12"/>
    <rect x="586" y="96" width="7" height="12"/>
    <rect x="593" y="96" width="7" height="12"/>
    <rect x="600" y="96" width="7" height="12"/>
    <rect x="607" y="96" width="7" height="12"/>
    <rect x="614" y="96" width="7" height="12"/>
    <rect x="642" y="96" width="7" height="12"/>
    <rect x="649" y="96" width="7" height="12"/>
    <rect x="656" y="96" width="7" height="12"/>
    <rect x="663" y="96" width="7" height="12"/>
    <rect x="677" y="96" width="7" height="12"/>
    <rect x="684" y="96" width="7" height="12"/>
    <rect x="691" y="96" width="7" height="12"/>
    <rect x="698" y="96" width="7" height="12"/>
    <rect x="705" y="96" width="7" height="12"/>
    <rect x="726" y="96" width="7" height="12"/>
    <rect x="733" y="96" width="7" height="12"/>
    <rect x="740" y="96" width="7" height="12"/>
    <rect x="747" y="96" width="7" height="12"/>
    <rect x="754" y="96" width="7" height="12"/>
    <rect x="775" y="96" width="7" height="12"/>
    <rect x="782" y="96" width="7" height="12"/>
    <rect x="789" y="96" width="7" height="12"/>
    <rect x="796" y="96" width="7" height="12"/>
    <rect x="803" y="96" width="7" height="12"/>
    <rect x="824" y="96" width="7" height="12"/>
    <rect x="831" y="96" width="7" height="12"/>
    <rect x="838" y="96" width="7" height="12"/>
    <rect x="845" y="96" width="7" height="12"/>
    <rect x="852" y="96" width="7" height="12"/>
    <rect x="873" y="96" width="7" height="12"/>
    <rect x="880" y="96" width="7" height="12"/>
    <rect x="887" y="96" width="7" height="12"/>
    <rect x="894" y="96" width="7" height="12"/>
    <rect x="901" y="96" width="7" height="12"/>
    <rect x="908" y="96" width="7" height="12"/>
  </g>
  <g fill="url(#gs)">
    <rect x="12" y="24" width="7" height="12"/>
    <rect x="19" y="24" width="7" height="12"/>
    <rect x="47" y="24" width="7" height="12"/>
    <rect x="54" y="24" width="7" height="12"/>
    <rect x="61" y="24" width="7" height="12"/>
    <rect x="68" y="24" width="7" height="12"/>
    <rect x="75" y="24" width="7" height="12"/>
    <rect x="82" y="24" width="7" height="12"/>
    <rect x="257" y="24" width="7" height="12"/>
    <rect x="264" y="24" width="7" height="12"/>
    <rect x="327" y="24" width="7" height="12"/>
    <rect x="334" y="24" width="7" height="12"/>
    <rect x="411" y="24" width="7" height="12"/>
    <rect x="418" y="24" width="7" height="12"/>
    <rect x="425" y="24" width="7" height="12"/>
    <rect x="460" y="24" width="7" height="12"/>
    <rect x="467" y="24" width="7" height="12"/>
    <rect x="579" y="24" width="7" height="12"/>
    <rect x="586" y="24" width="7" height="12"/>
    <rect x="593" y="24" width="7" height="12"/>
    <rect x="600" y="24" width="7" height="12"/>
    <rect x="607" y="24" width="7" height="12"/>
    <rect x="642" y="24" width="7" height="12"/>
    <rect x="649" y="24" width="7" height="12"/>
    <rect x="733" y="24" width="7" height="12"/>
    <rect x="740" y="24" width="7" height="12"/>
    <rect x="747" y="24" width="7" height="12"/>
    <rect x="775" y="24" width="7" height="12"/>
    <rect x="782" y="24" width="7" height="12"/>
    <rect x="824" y="24" width="7" height="12"/>
    <rect x="831" y="24" width="7" height="12"/>
    <rect x="19" y="36" width="7" height="12"/>
    <rect x="82" y="36" width="7" height="12"/>
    <rect x="334" y="36" width="7" height="12"/>
    <rect x="551" y="36" width="7" height="12"/>
    <rect x="607" y="36" width="7" height="12"/>
    <rect x="614" y="36" width="7" height="12"/>
    <rect x="621" y="36" width="7" height="12"/>
    <rect x="649" y="36" width="7" height="12"/>
    <rect x="782" y="36" width="7" height="12"/>
    <rect x="831" y="36" width="7" height="12"/>
    <rect x="19" y="48" width="7" height="12"/>
    <rect x="131" y="48" width="7" height="12"/>
    <rect x="138" y="48" width="7" height="12"/>
    <rect x="180" y="48" width="7" height="12"/>
    <rect x="187" y="48" width="7" height="12"/>
    <rect x="194" y="48" width="7" height="12"/>
    <rect x="201" y="48" width="7" height="12"/>
    <rect x="208" y="48" width="7" height="12"/>
    <rect x="250" y="48" width="7" height="12"/>
    <rect x="257" y="48" width="7" height="12"/>
    <rect x="264" y="48" width="7" height="12"/>
    <rect x="292" y="48" width="7" height="12"/>
    <rect x="334" y="48" width="7" height="12"/>
    <rect x="362" y="48" width="7" height="12"/>
    <rect x="369" y="48" width="7" height="12"/>
    <rect x="404" y="48" width="7" height="12"/>
    <rect x="411" y="48" width="7" height="12"/>
    <rect x="453" y="48" width="7" height="12"/>
    <rect x="460" y="48" width="7" height="12"/>
    <rect x="467" y="48" width="7" height="12"/>
    <rect x="495" y="48" width="7" height="12"/>
    <rect x="551" y="48" width="7" height="12"/>
    <rect x="558" y="48" width="7" height="12"/>
    <rect x="649" y="48" width="7" height="12"/>
    <rect x="677" y="48" width="7" height="12"/>
    <rect x="684" y="48" width="7" height="12"/>
    <rect x="726" y="48" width="7" height="12"/>
    <rect x="733" y="48" width="7" height="12"/>
    <rect x="782" y="48" width="7" height="12"/>
    <rect x="831" y="48" width="7" height="12"/>
    <rect x="901" y="48" width="7" height="12"/>
    <rect x="908" y="48" width="7" height="12"/>
    <rect x="19" y="60" width="7" height="12"/>
    <rect x="47" y="60" width="7" height="12"/>
    <rect x="54" y="60" width="7" height="12"/>
    <rect x="61" y="60" width="7" height="12"/>
    <rect x="103" y="60" width="7" height="12"/>
    <rect x="264" y="60" width="7" height="12"/>
    <rect x="334" y="60" width="7" height="12"/>
    <rect x="369" y="60" width="7" height="12"/>
    <rect x="411" y="60" width="7" height="12"/>
    <rect x="467" y="60" width="7" height="12"/>
    <rect x="558" y="60" width="7" height="12"/>
    <rect x="565" y="60" width="7" height="12"/>
    <rect x="572" y="60" width="7" height="12"/>
    <rect x="579" y="60" width="7" height="12"/>
    <rect x="586" y="60" width="7" height="12"/>
    <rect x="593" y="60" width="7" height="12"/>
    <rect x="600" y="60" width="7" height="12"/>
    <rect x="607" y="60" width="7" height="12"/>
    <rect x="649" y="60" width="7" height="12"/>
    <rect x="698" y="60" width="7" height="12"/>
    <rect x="733" y="60" width="7" height="12"/>
    <rect x="782" y="60" width="7" height="12"/>
    <rect x="831" y="60" width="7" height="12"/>
    <rect x="873" y="60" width="7" height="12"/>
    <rect x="880" y="60" width="7" height="12"/>
    <rect x="19" y="72" width="7" height="12"/>
    <rect x="61" y="72" width="7" height="12"/>
    <rect x="103" y="72" width="7" height="12"/>
    <rect x="131" y="72" width="7" height="12"/>
    <rect x="138" y="72" width="7" height="12"/>
    <rect x="145" y="72" width="7" height="12"/>
    <rect x="201" y="72" width="7" height="12"/>
    <rect x="208" y="72" width="7" height="12"/>
    <rect x="264" y="72" width="7" height="12"/>
    <rect x="334" y="72" width="7" height="12"/>
    <rect x="369" y="72" width="7" height="12"/>
    <rect x="411" y="72" width="7" height="12"/>
    <rect x="467" y="72" width="7" height="12"/>
    <rect x="607" y="72" width="7" height="12"/>
    <rect x="649" y="72" width="7" height="12"/>
    <rect x="677" y="72" width="7" height="12"/>
    <rect x="684" y="72" width="7" height="12"/>
    <rect x="733" y="72" width="7" height="12"/>
    <rect x="782" y="72" width="7" height="12"/>
    <rect x="831" y="72" width="7" height="12"/>
    <rect x="880" y="72" width="7" height="12"/>
    <rect x="887" y="72" width="7" height="12"/>
    <rect x="894" y="72" width="7" height="12"/>
    <rect x="901" y="72" width="7" height="12"/>
    <rect x="103" y="84" width="7" height="12"/>
    <rect x="110" y="84" width="7" height="12"/>
    <rect x="173" y="84" width="7" height="12"/>
    <rect x="180" y="84" width="7" height="12"/>
    <rect x="264" y="84" width="7" height="12"/>
    <rect x="271" y="84" width="7" height="12"/>
    <rect x="467" y="84" width="7" height="12"/>
    <rect x="474" y="84" width="7" height="12"/>
    <rect x="551" y="84" width="7" height="12"/>
    <rect x="558" y="84" width="7" height="12"/>
    <rect x="12" y="96" width="7" height="12"/>
    <rect x="19" y="96" width="7" height="12"/>
    <rect x="26" y="96" width="7" height="12"/>
    <rect x="33" y="96" width="7" height="12"/>
    <rect x="40" y="96" width="7" height="12"/>
    <rect x="110" y="96" width="7" height="12"/>
    <rect x="117" y="96" width="7" height="12"/>
    <rect x="124" y="96" width="7" height="12"/>
    <rect x="131" y="96" width="7" height="12"/>
    <rect x="138" y="96" width="7" height="12"/>
    <rect x="145" y="96" width="7" height="12"/>
    <rect x="180" y="96" width="7" height="12"/>
    <rect x="187" y="96" width="7" height="12"/>
    <rect x="194" y="96" width="7" height="12"/>
    <rect x="201" y="96" width="7" height="12"/>
    <rect x="208" y="96" width="7" height="12"/>
    <rect x="215" y="96" width="7" height="12"/>
    <rect x="222" y="96" width="7" height="12"/>
    <rect x="229" y="96" width="7" height="12"/>
    <rect x="271" y="96" width="7" height="12"/>
    <rect x="278" y="96" width="7" height="12"/>
    <rect x="285" y="96" width="7" height="12"/>
    <rect x="292" y="96" width="7" height="12"/>
    <rect x="299" y="96" width="7" height="12"/>
    <rect x="327" y="96" width="7" height="12"/>
    <rect x="334" y="96" width="7" height="12"/>
    <rect x="341" y="96" width="7" height="12"/>
    <rect x="348" y="96" width="7" height="12"/>
    <rect x="355" y="96" width="7" height="12"/>
    <rect x="362" y="96" width="7" height="12"/>
    <rect x="369" y="96" width="7" height="12"/>
    <rect x="376" y="96" width="7" height="12"/>
    <rect x="404" y="96" width="7" height="12"/>
    <rect x="411" y="96" width="7" height="12"/>
    <rect x="418" y="96" width="7" height="12"/>
    <rect x="425" y="96" width="7" height="12"/>
    <rect x="432" y="96" width="7" height="12"/>
    <rect x="474" y="96" width="7" height="12"/>
    <rect x="481" y="96" width="7" height="12"/>
    <rect x="488" y="96" width="7" height="12"/>
    <rect x="495" y="96" width="7" height="12"/>
    <rect x="502" y="96" width="7" height="12"/>
    <rect x="558" y="96" width="7" height="12"/>
    <rect x="565" y="96" width="7" height="12"/>
    <rect x="572" y="96" width="7" height="12"/>
    <rect x="579" y="96" width="7" height="12"/>
    <rect x="586" y="96" width="7" height="12"/>
    <rect x="593" y="96" width="7" height="12"/>
    <rect x="600" y="96" width="7" height="12"/>
    <rect x="607" y="96" width="7" height="12"/>
    <rect x="614" y="96" width="7" height="12"/>
    <rect x="642" y="96" width="7" height="12"/>
    <rect x="649" y="96" width="7" height="12"/>
    <rect x="656" y="96" width="7" height="12"/>
    <rect x="663" y="96" width="7" height="12"/>
    <rect x="677" y="96" width="7" height="12"/>
    <rect x="684" y="96" width="7" height="12"/>
    <rect x="691" y="96" width="7" height="12"/>
    <rect x="698" y="96" width="7" height="12"/>
    <rect x="705" y="96" width="7" height="12"/>
    <rect x="726" y="96" width="7" height="12"/>
    <rect x="733" y="96" width="7" height="12"/>
    <rect x="740" y="96" width="7" height="12"/>
    <rect x="747" y="96" width="7" height="12"/>
    <rect x="754" y="96" width="7" height="12"/>
    <rect x="775" y="96" width="7" height="12"/>
    <rect x="782" y="96" width="7" height="12"/>
    <rect x="789" y="96" width="7" height="12"/>
    <rect x="796" y="96" width="7" height="12"/>
    <rect x="803" y="96" width="7" height="12"/>
    <rect x="824" y="96" width="7" height="12"/>
    <rect x="831" y="96" width="7" height="12"/>
    <rect x="838" y="96" width="7" height="12"/>
    <rect x="845" y="96" width="7" height="12"/>
    <rect x="852" y="96" width="7" height="12"/>
    <rect x="873" y="96" width="7" height="12"/>
    <rect x="880" y="96" width="7" height="12"/>
    <rect x="887" y="96" width="7" height="12"/>
    <rect x="894" y="96" width="7" height="12"/>
    <rect x="901" y="96" width="7" height="12"/>
    <rect x="908" y="96" width="7" height="12"/>
  </g>
</svg>
